<mxfile host="Electron" modified="2024-04-16T20:10:22.858Z" agent="Mozilla/5.0 (Macintosh; Intel Mac OS X 10_15_7) AppleWebKit/537.36 (KHTML, like Gecko) draw.io/23.1.5 Chrome/120.0.6099.109 Electron/28.1.0 Safari/537.36" etag="up3otUTOEuIm5QOjKXPZ" version="23.1.5" type="device">
  <diagram name="Page-1" id="u5EL-flUZFRyIjGby143">
    <mxGraphModel dx="683" dy="432" grid="1" gridSize="10" guides="1" tooltips="1" connect="1" arrows="1" fold="1" page="1" pageScale="1" pageWidth="580" pageHeight="580" math="0" shadow="0">
      <root>
        <mxCell id="0" />
        <mxCell id="1" parent="0" />
      </root>
    </mxGraphModel>
  </diagram>
</mxfile>
